# xmcd
# 
# Track frame offsets:
#     150
#     18870
#     40148
#     62722
#     79226
#     99935
#     117843
#     149600
#     177960
#     196622
#     203721
#     223280
#     242963
# 
# Disc length: 3403
# 
# Revision: 4
# Processed by: cddbd v1.5.2PL0 Copyright (c) Steve Scherf et al.
# Submitted via: fre:ac v1.0.31
# 
DISCID=b50d490d
DTITLE=SOIL&“PIMP”SESSIONS - Pimp of The Year
DYEAR=2006
DGENRE=Jazz
TTITLE0=MEMAI
TTITLE1=SUMMER GODDESS
TTITLE2=WORLDWIDE
TTITLE3=Crush!
TTITLE4=SABOTAGE
TTITLE5=SCOOP OUT
TTITLE6=SAHARA
TTITLE7=破片
TTITLE8=THE BLACK WIDOW BLUES
TTITLE9=THE WHITE WIDOW
TTITLE10=i-rony
TTITLE11=LAST LONG
TTITLE12=SATSURIKUニューウェイヴ
EXTD=YEAR: 2006
EXTT0=
EXTT1=
EXTT2=
EXTT3=
EXTT4=
EXTT5=
EXTT6=
EXTT7=
EXTT8=
EXTT9=
EXTT10=
EXTT11=
EXTT12=
PLAYORDER=
